<?xml version="1.0" encoding="UTF-8" standalone="no"?>
<!-- Created with Inkscape (http://www.inkscape.org/) -->

<svg
   width="220"
   height="50"
   viewBox="0 0 58.208358 13.229167"
   version="1.1"
   id="svg141"
   xml:space="preserve"
   inkscape:version="1.2.2 (732a01da63, 2022-12-09)"
   sodipodi:docname="shipfinity_logo_dark.svg"
   xmlns:inkscape="http://www.inkscape.org/namespaces/inkscape"
   xmlns:sodipodi="http://sodipodi.sourceforge.net/DTD/sodipodi-0.dtd"
   xmlns="http://www.w3.org/2000/svg"
   xmlns:svg="http://www.w3.org/2000/svg"><sodipodi:namedview
     id="namedview143"
     pagecolor="#505050"
     bordercolor="#eeeeee"
     borderopacity="1"
     inkscape:showpageshadow="0"
     inkscape:pageopacity="0"
     inkscape:pagecheckerboard="0"
     inkscape:deskcolor="#505050"
     inkscape:document-units="mm"
     showgrid="false"
     inkscape:zoom="5.6568543"
     inkscape:cx="122.24108"
     inkscape:cy="88.7419"
     inkscape:window-width="2560"
     inkscape:window-height="1387"
     inkscape:window-x="1912"
     inkscape:window-y="-8"
     inkscape:window-maximized="1"
     inkscape:current-layer="g874" /><defs
     id="defs138" /><g
     inkscape:label="Layer 1"
     inkscape:groupmode="layer"
     id="layer1"><g
       id="g245"><g
         id="g882"
         style="fill:#212529;fill-opacity:1"><g
           id="g874"
           style="fill:#212529;fill-opacity:1"><path
             d="m 11.261444,4.0029108 a 0.45736438,0.45736438 0 0 1 0.457364,0.4573644 v 0.4573644 h 0.933023 a 1.3720931,1.3720931 0 0 1 1.070233,0.5149923 l 1.354713,1.6922482 a 1.3720931,1.3720931 0 0 1 0.300946,0.8580156 v 1.965752 A 1.3720931,1.3720931 0 0 1 14.00563,11.320741 h -0.457364 a 1.8294578,1.8294578 0 1 1 -3.6589155,0 H 5.3157067 a 1.8294575,1.8294575 0 1 1 -3.658915,0 0.91472876,0.91472876 0 0 1 -0.91472877,-0.914729 V 9.4912833 H 10.804079 V 4.4602752 A 0.45736438,0.45736438 0 0 1 11.261444,4.0029108 Z M 3.4862492,10.406012 a 0.914729,0.914729 0 1 0 0,1.829458 0.914729,0.914729 0 0 0 0,-1.829458 z m 8.2325588,0 a 0.914729,0.914729 0 1 0 0,1.829458 0.914729,0.914729 0 0 0 0,-1.829458 z m 1.58431,0 H 14.00563 A 0.45736438,0.45736438 0 0 0 14.462994,9.9486477 V 7.981981 A 0.45736438,0.45736438 0 0 0 14.362374,7.6965856 L 13.008576,6.0043374 a 0.45736438,0.45736438 0 0 0 -0.356745,-0.171969 h -0.933023 v 3.6589149 a 1.8294575,1.8294575 0 0 1 1.58431,0.9147287 z"
             id="path2"
             style="fill:#212529;fill-opacity:1;stroke-width:0.914729" /><g
             aria-label="S"
             transform="rotate(40.681239)"
             id="text896"
             style="font-size:12.8124px;stroke-width:0.854165"
             inkscape:transform-center-x="-0.08136448"
             inkscape:transform-center-y="0.027825346"><path
               d="m 4.1712022,-2.1242934 q 0,-0.5567888 0.2127058,-1.0447611 0.2127059,-0.4879722 0.5755571,-0.8508234 0.3691072,-0.3691072 0.8570794,-0.5818131 0.4879723,-0.2127058 1.0447612,-0.2127058 H 10.97779 v 1.7954876 H 6.8613057 q -0.1876817,0 -0.3503391,0.068817 -0.1626574,0.068817 -0.2877785,0.1939377 -0.1188651,0.1188651 -0.1876817,0.2815225 -0.068817,0.1626574 -0.068817,0.350339 0,0.1876817 0.068817,0.3565952 0.068817,0.1626574 0.1876817,0.2877785 0.1251211,0.118865 0.2877785,0.1876816 0.1626574,0.068817 0.3503391,0.068817 h 1.7954876 q 0.5567889,0 1.0447612,0.2127059 0.4942285,0.20644977 0.8570795,0.575557 0.369107,0.36285116 0.575557,0.85707948 0.212706,0.48797226 0.212706,1.04476112 0,0.5567889 -0.212706,1.0447611 -0.20645,0.4879723 -0.575557,0.8570795 Q 10.195783,3.7313738 9.7015545,3.9440796 9.2135822,4.1567855 8.6567933,4.1567855 H 4.6716865 V 2.3612978 h 3.9851068 q 0.1876817,0 0.3503391,-0.068817 0.1626574,-0.068817 0.2815225,-0.1876816 0.125121,-0.1251211 0.1939376,-0.2877785 0.068817,-0.1626575 0.068817,-0.3503391 0,-0.1876816 -0.068817,-0.3503391 Q 9.4137759,0.95368552 9.2886549,0.83482048 9.1697898,0.70969939 9.0071324,0.64088279 8.844475,0.57206619 8.6567933,0.57206619 H 6.8613057 q -0.5567889,0 -1.0447612,-0.21270586 Q 5.3285723,0.14665448 4.9594651,-0.21619669 4.5966139,-0.58530391 4.383908,-1.0732762 4.1712022,-1.5675045 4.1712022,-2.1242934 Z"
               style="font-family:Righteous;-inkscape-font-specification:Righteous"
               id="path416" /></g></g><g
           aria-label="hipfinity"
           id="text368"
           style="font-size:10.9767px;font-family:Righteous;-inkscape-font-specification:Righteous;stroke-width:0.731783"><path
             d="M 17.388219,10.432216 H 15.925017 V 2.4087198 h 1.463202 v 2.535146 q 0.262626,-0.1983095 0.541332,-0.2787053 0.278705,-0.085755 0.56813,-0.085755 0.530612,0 0.996907,0.2036693 0.466295,0.1983095 0.809317,0.5520508 0.348382,0.3483816 0.546691,0.8200367 0.20367,0.4662953 0.20367,0.9969073 V 10.432216 H 19.580343 V 7.1520691 h 0.01072 q 0,-0.2251081 -0.08576,-0.4234177 -0.08575,-0.2036692 -0.235827,-0.3537413 -0.150072,-0.150072 -0.348382,-0.2358275 -0.198309,-0.085756 -0.423417,-0.085756 -0.230468,0 -0.434137,0.085756 -0.20367,0.085756 -0.353742,0.2358275 -0.150072,0.1500721 -0.235827,0.3537413 -0.08576,0.1983096 -0.08576,0.4234177 z"
             id="path397" /><path
             d="m 23.819879,3.1322815 q 0,0.2036693 -0.08039,0.3805399 -0.07504,0.1768707 -0.209029,0.3108636 -0.133993,0.1286332 -0.316224,0.2090289 -0.17687,0.075036 -0.380539,0.075036 -0.20367,0 -0.3859,-0.075036 -0.176871,-0.080396 -0.310864,-0.2090289 -0.128633,-0.1339929 -0.209029,-0.3108636 -0.07504,-0.1768706 -0.07504,-0.3805399 0,-0.1983095 0.07504,-0.3751801 0.0804,-0.1822304 0.209029,-0.3108636 0.133993,-0.1339929 0.310864,-0.209029 0.18223,-0.080396 0.3859,-0.080396 0.203669,0 0.380539,0.080396 0.182231,0.075036 0.316224,0.209029 0.133993,0.1286332 0.209029,0.3108636 0.08039,0.1768706 0.08039,0.3751801 z M 23.567973,10.432216 H 22.094051 V 4.6919591 h 1.473922 z"
             id="path399" /><path
             d="M 26.156716,12.61898 H 24.682794 V 4.6919591 h 0.353741 l 0.584209,0.6914034 q 0.19831,-0.18759 0.434137,-0.3537413 0.235828,-0.1661512 0.487735,-0.2840649 0.257266,-0.1232735 0.530612,-0.1929498 0.273345,-0.069676 0.55205,-0.069676 0.605648,0 1.13626,0.2197484 0.535972,0.2143887 0.932591,0.6110077 0.401979,0.3966191 0.632447,0.9593893 0.230467,0.5574106 0.230467,1.2380946 0,0.7074826 -0.230467,1.2756126 -0.230468,0.5627702 -0.632447,0.9593893 -0.396619,0.391259 -0.932591,0.600288 -0.530612,0.209029 -1.13626,0.209029 -0.192949,0 -0.385899,-0.04288 -0.18759,-0.04288 -0.37518,-0.112554 -0.182231,-0.07504 -0.364461,-0.166151 -0.176871,-0.09111 -0.343022,-0.18759 z m 2.931765,-5.1078099 q 0,-0.3644608 -0.117914,-0.6538855 -0.112554,-0.2894247 -0.310863,-0.4877342 -0.19831,-0.2036692 -0.466296,-0.3108635 -0.267985,-0.1071944 -0.56813,-0.1071944 -0.300144,0 -0.56813,0.1071944 -0.262626,0.1071943 -0.460935,0.3108635 -0.19831,0.1983095 -0.316224,0.4877342 -0.112554,0.2894247 -0.112554,0.6538855 0,0.3483816 0.112554,0.6378063 0.117914,0.2894247 0.316224,0.4930939 0.198309,0.2036692 0.460935,0.3162233 0.267986,0.112554 0.56813,0.112554 0.300145,0 0.56813,-0.112554 0.267986,-0.1125541 0.466296,-0.3162233 0.198309,-0.2036692 0.310863,-0.4930939 0.117914,-0.2894247 0.117914,-0.6378063 z"
             id="path401" /><path
             d="M 33.161866,10.432216 H 31.698663 V 6.149802 H 30.985821 V 4.6919591 h 0.712842 V 4.4186135 q 0,-0.5306119 0.19831,-0.9969073 0.203669,-0.4662953 0.552051,-0.8093172 0.353741,-0.3483816 0.820036,-0.5466911 0.466296,-0.2036692 0.996908,-0.2036692 h 1.098741 v 1.4578429 h -1.098741 q -0.235828,0 -0.439497,0.085755 -0.19831,0.080396 -0.348382,0.2304678 -0.144712,0.1447123 -0.230468,0.3483816 -0.08575,0.1983095 -0.08575,0.434137 v 0.2733456 h 1.795505 V 6.149802 h -1.795505 z"
             id="path403" /><path
             d="m 37.583632,3.1322815 q 0,0.2036693 -0.0804,0.3805399 -0.07504,0.1768707 -0.209029,0.3108636 -0.133993,0.1286332 -0.316224,0.2090289 -0.17687,0.075036 -0.380539,0.075036 -0.20367,0 -0.3859,-0.075036 -0.176871,-0.080396 -0.310864,-0.2090289 -0.128633,-0.1339929 -0.209029,-0.3108636 -0.07504,-0.1768706 -0.07504,-0.3805399 0,-0.1983095 0.07504,-0.3751801 0.0804,-0.1822304 0.209029,-0.3108636 0.133993,-0.1339929 0.310864,-0.209029 0.18223,-0.080396 0.3859,-0.080396 0.203669,0 0.380539,0.080396 0.182231,0.075036 0.316224,0.209029 0.133993,0.1286332 0.209029,0.3108636 0.0804,0.1768706 0.0804,0.3751801 z M 37.331726,10.432216 H 35.857804 V 4.6919591 h 1.473922 z"
             id="path405" /><path
             d="M 39.90975,10.432216 H 38.446547 V 4.6919591 h 0.353741 l 0.482375,0.5574105 q 0.353741,-0.321583 0.798597,-0.4930939 0.450217,-0.1768707 0.937951,-0.1768707 0.525252,0 0.991547,0.2036693 0.466296,0.1983095 0.814677,0.5520508 0.348382,0.3483816 0.546692,0.8200367 0.203669,0.4662953 0.203669,0.9969073 V 10.432216 H 42.112593 V 7.1520691 q 0,-0.2251081 -0.08575,-0.4234177 -0.08576,-0.2036692 -0.235828,-0.3537413 -0.150072,-0.150072 -0.348382,-0.2358275 -0.198309,-0.085756 -0.423417,-0.085756 -0.230468,0 -0.434137,0.085756 -0.203669,0.085756 -0.353741,0.2358275 -0.150073,0.1500721 -0.235828,0.3537413 -0.08575,0.1983096 -0.08575,0.4234177 z"
             id="path407" /><path
             d="m 46.341409,3.1322815 q 0,0.2036693 -0.0804,0.3805399 -0.07504,0.1768707 -0.209029,0.3108636 -0.133993,0.1286332 -0.316223,0.2090289 -0.176871,0.075036 -0.38054,0.075036 -0.203669,0 -0.3859,-0.075036 -0.17687,-0.080396 -0.310863,-0.2090289 -0.128634,-0.1339929 -0.209029,-0.3108636 -0.07504,-0.1768706 -0.07504,-0.3805399 0,-0.1983095 0.07504,-0.3751801 0.08039,-0.1822304 0.209029,-0.3108636 0.133993,-0.1339929 0.310863,-0.209029 0.182231,-0.080396 0.3859,-0.080396 0.203669,0 0.38054,0.080396 0.18223,0.075036 0.316223,0.209029 0.133993,0.1286332 0.209029,0.3108636 0.0804,0.1768706 0.0804,0.3751801 z M 46.089502,10.432216 H 44.61558 V 4.6919591 h 1.473922 z"
             id="path409" /><path
             d="m 50.082491,10.432216 q -0.530612,0 -0.996907,-0.19831 Q 48.619288,10.030237 48.265547,9.6818554 47.917165,9.328114 47.713496,8.8618187 47.515187,8.3955233 47.515187,7.8649114 V 6.1605215 h -0.712843 v -1.457843 h 0.712843 V 2.4087198 h 1.457843 v 2.2939587 h 2.218922 v 1.457843 H 48.97303 v 1.7043899 q 0,0.2304678 0.08575,0.434137 0.08576,0.1983096 0.235828,0.3483816 0.150072,0.1500721 0.353741,0.2411873 0.203669,0.085755 0.434137,0.085755 h 1.109461 v 1.4578433 z"
             id="path411" /><path
             d="m 53.394795,12.61898 v -1.473922 l 0.814677,0.01072 q 0.214389,0 0.412698,-0.06968 0.19831,-0.06968 0.364461,-0.19295 0.171511,-0.123273 0.300144,-0.294784 0.128633,-0.166151 0.209029,-0.364461 -0.241187,0.101835 -0.493094,0.203669 -0.246547,0.101835 -0.498454,0.101835 -0.530612,0 -0.996907,-0.18759 Q 53.041054,10.16423 52.687312,9.821208 52.338931,9.4728264 52.135261,8.9797325 51.936952,8.4812788 51.936952,7.8649114 V 4.6919591 h 1.457843 v 3.1729523 q 0,0.3055038 0.08575,0.5359717 0.09112,0.2251081 0.241188,0.3805398 0.150072,0.1500721 0.348381,0.2251081 0.203669,0.075036 0.434137,0.075036 0.225108,0 0.423418,-0.1018346 0.203669,-0.1071944 0.353741,-0.2787053 0.150072,-0.1715109 0.235828,-0.3858996 0.08575,-0.2197484 0.08575,-0.4502162 V 4.6919591 h 1.473922 v 5.0166948 q -0.0054,0.6056481 -0.235827,1.1362601 -0.230468,0.530612 -0.632447,0.927231 -0.396619,0.396619 -0.927231,0.627087 -0.530612,0.230468 -1.13626,0.230468 z"
             id="path413" /></g></g></g></g></svg>
