<?xml version="1.0" encoding="UTF-8" standalone="no"?>
<svg
   width="16"
   height="16"
   fill="currentColor"
   class="bi bi-truck-flatbed"
   viewBox="0 0 16 16"
   version="1.1"
   id="svg4"
   sodipodi:docname="shipfinity_logo.svg"
   inkscape:version="1.2.2 (732a01da63, 2022-12-09)"
   xmlns:inkscape="http://www.inkscape.org/namespaces/inkscape"
   xmlns:sodipodi="http://sodipodi.sourceforge.net/DTD/sodipodi-0.dtd"
   xmlns="http://www.w3.org/2000/svg"
   xmlns:svg="http://www.w3.org/2000/svg">
  <defs
     id="defs8" />
  <sodipodi:namedview
     id="namedview6"
     pagecolor="#505050"
     bordercolor="#eeeeee"
     borderopacity="1"
     inkscape:showpageshadow="0"
     inkscape:pageopacity="0"
     inkscape:pagecheckerboard="0"
     inkscape:deskcolor="#505050"
     showgrid="false"
     inkscape:zoom="62.625"
     inkscape:cx="7.8962076"
     inkscape:cy="8.9421158"
     inkscape:window-width="2560"
     inkscape:window-height="1387"
     inkscape:window-x="1912"
     inkscape:window-y="-8"
     inkscape:window-maximized="1"
     inkscape:current-layer="svg4" />
  <path
     d="m 11.484032,5.5329341 a 0.5,0.5 0 0 1 0.5,0.5 v 0.5 h 1.02 a 1.5,1.5 0 0 1 1.17,0.563 l 1.481,1.85 a 1.5,1.5 0 0 1 0.329,0.938 v 2.1489999 a 1.5,1.5 0 0 1 -1.5,1.5 h -0.5 a 2,2 0 1 1 -4.0000001,0 h -5 a 2,2 0 1 1 -3.99999996,0 1,1 0 0 1 -1,-1 v -1 H 10.984032 V 6.0329341 a 0.5,0.5 0 0 1 0.5,-0.5 z M 2.9840319,12.532934 a 1,1 0 1 0 0,2 1,1 0 0 0 0,-2 z m 9.0000001,0 a 1,1 0 1 0 0,2 1,1 0 0 0 0,-2 z m 1.732,0 h 0.768 a 0.5,0.5 0 0 0 0.5,-0.5 V 9.8829341 a 0.5,0.5 0 0 0 -0.11,-0.312 l -1.48,-1.85 a 0.5,0.5 0 0 0 -0.39,-0.188 h -1.02 v 3.9999999 a 2,2 0 0 1 1.732,1 z"
     id="path2"
     style="fill:#e3e3e3;fill-opacity:1" />
  <text
     xml:space="preserve"
     style="font-size:14.0068px;fill:#e3e3e3;fill-opacity:1;stroke:none;stroke-width:0.93379"
     x="4.351716"
     y="5.9608073"
     id="text896"
     inkscape:transform-center-x="-0.08136448"
     inkscape:transform-center-y="0.027825346"
     transform="rotate(40.681239)"><tspan
       sodipodi:role="line"
       id="tspan894"
       x="4.351716"
       y="5.9608073"
       style="font-style:normal;font-variant:normal;font-weight:normal;font-stretch:normal;font-family:Righteous;-inkscape-font-specification:Righteous;stroke-width:0.93379;fill:#e3e3e3;fill-opacity:1">S</tspan></text>
</svg>
