<?xml version="1.0" standalone="no"?>
<!DOCTYPE svg PUBLIC "-//W3C//DTD SVG 20010904//EN"
 "http://www.w3.org/TR/2001/REC-SVG-20010904/DTD/svg10.dtd">
<svg version="1.0" xmlns="http://www.w3.org/2000/svg"
 width="810.000000pt" height="806.000000pt" viewBox="0 0 810.000000 806.000000"
 preserveAspectRatio="xMidYMid meet">

<g transform="translate(0.000000,806.000000) scale(0.100000,-0.100000)"
fill="#000000" stroke="none">
<path d="M2080 5248 c-40 -11 -94 -58 -109 -97 -8 -18 -11 -399 -9 -1281 l3
-1255 23 -32 c12 -17 42 -41 65 -52 l43 -21 1962 0 c1626 0 1968 2 1995 14 43
17 95 78 102 118 3 18 4 589 3 1269 l-3 1236 -28 36 c-15 20 -42 45 -60 55
-30 16 -146 17 -1992 19 -1270 1 -1972 -2 -1995 -9z m3501 -461 c110 -59 142
-222 62 -318 -33 -39 -115 -79 -164 -79 -54 0 -139 48 -174 98 -26 38 -30 52
-30 111 0 58 4 75 30 116 39 64 97 95 175 95 40 0 70 -7 101 -23z m-837 -173
c9 -3 16 -15 16 -26 0 -17 -4 -19 -26 -14 -30 8 -54 -8 -54 -35 0 -13 9 -19
32 -21 22 -2 34 -9 36 -20 3 -14 -4 -18 -32 -18 l-35 0 -3 -107 c-3 -103 -4
-108 -25 -111 -23 -3 -23 -3 -23 148 0 88 4 160 11 171 16 31 67 47 103 33z
m-216 -70 c50 -56 12 -144 -63 -144 -42 0 -95 44 -95 79 0 57 57 107 110 95
14 -2 35 -16 48 -30z m-424 -35 c170 -63 231 -241 145 -418 -27 -57 -67 -101
-280 -316 -137 -138 -249 -254 -249 -258 0 -4 140 -7 310 -7 l310 0 0 -35 0
-35 -372 2 -373 3 -3 24 c-3 19 46 73 276 305 316 319 332 340 332 458 0 83
-15 123 -64 165 -104 92 -354 80 -474 -23 l-41 -35 -31 22 -30 23 32 34 c105
107 352 151 512 91z m-644 -10 c0 -18 -30 -97 -66 -178 -73 -159 -235 -514
-336 -736 l-64 -140 -42 -3 c-23 -2 -42 0 -42 5 0 4 49 116 109 248 175 382
332 729 338 742 4 10 -69 13 -333 15 l-339 3 -3 38 -3 37 390 0 391 0 0 -31z
m2038 -426 c-2 -10 -10 -18 -18 -18 -8 0 -16 8 -18 18 -2 12 3 17 18 17 15 0
20 -5 18 -17z m0 -86 c2 -12 -3 -17 -17 -17 -12 0 -21 6 -21 13 0 31 32 34 38
4z m-2 -78 c10 -17 -13 -36 -27 -22 -12 12 -4 33 11 33 5 0 12 -5 16 -11z m2
-96 c-2 -10 -10 -18 -18 -18 -8 0 -16 8 -18 18 -2 12 3 17 18 17 15 0 20 -5
18 -17z m0 -86 c2 -12 -3 -17 -17 -17 -12 0 -21 6 -21 13 0 31 32 34 38 4z
m-3 -87 c0 -22 -29 -18 -33 3 -3 14 1 18 15 15 10 -2 18 -10 18 -18z m3 -87
c-2 -10 -10 -18 -18 -18 -8 0 -16 8 -18 18 -2 12 3 17 18 17 15 0 20 -5 18
-17z m0 -86 c2 -12 -3 -17 -17 -17 -12 0 -21 6 -21 13 0 31 32 34 38 4z m-2
-78 c10 -17 -13 -36 -27 -22 -12 12 -4 33 11 33 5 0 12 -5 16 -11z m56 -131
c50 -15 113 -83 128 -139 23 -84 -12 -177 -83 -226 -35 -25 -50 -28 -117 -28
-68 0 -81 3 -118 29 -49 34 -92 112 -92 168 0 75 57 164 125 194 37 17 106 18
157 2z m-1781 -88 c16 -9 19 -22 19 -80 0 -46 6 -78 17 -98 35 -61 -22 -129
-85 -103 -40 17 -54 56 -36 100 8 18 14 61 14 94 0 42 5 66 17 79 19 21 27 22
54 8z m-501 -36 c0 -8 -4 -14 -10 -14 -5 0 -10 9 -10 21 0 11 5 17 10 14 6 -3
10 -13 10 -21z m960 -5 c7 -13 17 -18 27 -15 22 9 42 -11 36 -34 -3 -12 1 -22
11 -26 20 -8 21 -40 1 -48 -10 -4 -15 -16 -13 -33 3 -25 -1 -28 -26 -29 -16
-1 -33 -8 -38 -18 -5 -9 -15 -16 -23 -16 -8 0 -18 7 -23 16 -5 10 -22 17 -38
18 -25 1 -29 4 -26 29 2 17 -3 29 -13 33 -8 3 -15 14 -15 24 0 10 7 21 15 24
10 4 15 16 13 33 -3 25 0 28 25 28 17 0 32 7 38 18 13 23 36 22 49 -4z m-1012
-7 c2 -7 -3 -12 -12 -12 -9 0 -16 7 -16 16 0 17 22 14 28 -4z m112 9 c0 -12
-20 -25 -27 -18 -7 7 6 27 18 27 5 0 9 -4 9 -9z m334 -12 c-3 -5 -10 -7 -15
-3 -5 3 -7 10 -3 15 3 5 10 7 15 3 5 -3 7 -10 3 -15z m-789 -29 c49 -71 33
-130 -35 -130 -24 0 -43 -7 -55 -20 -10 -11 -29 -20 -42 -20 -29 0 -73 42 -73
70 0 26 23 78 48 110 18 21 22 22 37 10 9 -7 25 -30 36 -49 16 -30 18 -32 13
-9 -5 25 19 78 36 78 4 0 20 -18 35 -40z m436 -9 c32 -32 35 -47 18 -85 -14
-31 -57 -49 -93 -40 -27 6 -56 48 -56 79 0 24 55 75 80 75 12 0 35 -13 51 -29z
m-131 -1 c0 -5 -4 -12 -10 -15 -5 -3 -10 -4 -10 -1 0 2 -3 12 -6 20 -5 12 -2
15 10 10 9 -3 16 -10 16 -14z m182 -2 c-6 -6 -15 -8 -19 -4 -4 4 -1 11 7 16
19 12 27 3 12 -12z m308 -8 c0 -5 -4 -10 -9 -10 -6 0 -13 5 -16 10 -3 6 1 10
9 10 9 0 16 -4 16 -10z m-510 -40 c0 -5 -7 -10 -16 -10 -8 0 -12 5 -9 10 3 6
10 10 16 10 5 0 9 -4 9 -10z m225 0 c3 -5 -3 -10 -14 -10 -12 0 -21 5 -21 10
0 6 6 10 14 10 8 0 18 -4 21 -10z m285 -10 c0 -5 -7 -10 -16 -10 -8 0 -12 5
-9 10 3 6 10 10 16 10 5 0 9 -4 9 -10z m-490 -45 c0 -8 -7 -15 -15 -15 -16 0
-20 12 -8 23 11 12 23 8 23 -8z m188 -3 c2 -7 -3 -12 -12 -12 -9 0 -16 7 -16
16 0 17 22 14 28 -4z m-148 -31 c0 -12 -20 -25 -27 -18 -7 7 6 27 18 27 5 0 9
-4 9 -9z m104 -7 c4 -10 1 -14 -6 -12 -15 5 -23 28 -10 28 5 0 13 -7 16 -16z
m-54 -19 c0 -8 -4 -15 -10 -15 -5 0 -10 7 -10 15 0 8 5 15 10 15 6 0 10 -7 10
-15z"/>
<path d="M5405 4776 c-127 -56 -151 -237 -43 -320 71 -52 166 -53 235 0 139
106 57 335 -119 334 -24 -1 -56 -7 -73 -14z m95 -96 l0 -60 60 0 c44 0 60 -4
60 -14 0 -16 -30 -26 -82 -26 l-38 0 0 -55 c0 -48 -2 -55 -20 -55 -18 0 -20 7
-20 55 l0 54 -57 3 c-46 2 -59 7 -61 21 -3 15 5 17 57 17 l61 0 0 60 c0 53 2
60 20 60 18 0 20 -7 20 -60z"/>
<path d="M4432 4518 c-21 -21 -14 -57 13 -70 22 -10 29 -9 47 10 19 18 20 25
10 47 -13 27 -49 34 -70 13z"/>
<path d="M5430 3248 c-146 -41 -187 -233 -71 -331 30 -25 87 -47 121 -47 34 0
91 22 121 47 118 100 75 291 -76 332 -46 13 -48 13 -95 -1z m188 -185 c3 -10
-29 -13 -137 -13 -120 0 -141 2 -141 15 0 13 20 15 137 13 98 -2 138 -6 141
-15z"/>
<path d="M3732 3148 c-7 -7 -12 -39 -12 -74 0 -40 -6 -73 -17 -92 -16 -28 -16
-31 0 -56 20 -30 57 -35 81 -10 18 17 21 60 6 69 -5 3 -10 39 -10 79 0 65 -10
96 -30 96 -3 0 -11 -5 -18 -12z m28 -114 c0 -31 4 -54 11 -54 6 0 9 -12 7 -27
-2 -22 -8 -28 -27 -28 -34 0 -50 29 -28 53 11 12 17 36 17 71 0 32 4 50 10 46
6 -3 10 -31 10 -61z"/>
<path d="M4157 3072 c-51 -57 21 -140 82 -95 32 24 38 56 17 89 -20 30 -75 33
-99 6z m81 -4 c7 -7 12 -24 12 -38 0 -48 -45 -67 -82 -33 -22 20 -23 32 -2 61
17 24 53 29 72 10z"/>
<path d="M4180 3055 c-26 -31 13 -82 44 -56 22 18 20 48 -3 61 -25 13 -26 13
-41 -5z"/>
</g>
</svg>
