<?xml version="1.0" standalone="no"?>
<!DOCTYPE svg PUBLIC "-//W3C//DTD SVG 20010904//EN"
 "http://www.w3.org/TR/2001/REC-SVG-20010904/DTD/svg10.dtd">
<svg version="1.0" xmlns="http://www.w3.org/2000/svg"
 width="582.000000pt" height="454.000000pt" viewBox="0 0 582.000000 454.000000"
 preserveAspectRatio="xMidYMid meet">

<g transform="translate(0.000000,454.000000) scale(0.100000,-0.100000)"
fill="#000000" stroke="none">
<path d="M1452 4533 c802 -2 2114 -2 2915 0 802 1 146 2 -1457 2 -1603 0
-2259 -1 -1458 -2z"/>
<path d="M2775 4189 c-185 -20 -386 -110 -523 -234 -61 -55 -76 -84 -62 -119
12 -33 54 -60 82 -53 13 4 50 29 83 57 162 138 331 200 543 200 206 -1 380
-68 550 -214 61 -53 91 -58 127 -21 42 41 34 80 -27 137 -202 188 -487 279
-773 247z"/>
<path d="M2757 3854 c-104 -23 -171 -51 -252 -105 -110 -74 -140 -118 -119
-174 9 -23 60 -46 88 -39 13 3 37 19 52 36 79 81 228 139 364 140 137 1 246
-39 366 -138 61 -49 80 -53 118 -23 20 16 26 29 26 59 0 33 -7 44 -54 87 -63
58 -186 124 -271 147 -89 24 -236 29 -318 10z"/>
<path d="M2785 3527 c-63 -17 -119 -46 -169 -90 -33 -28 -40 -41 -40 -70 0
-49 27 -77 74 -77 21 0 43 6 49 14 27 32 90 66 141 76 77 15 145 -1 213 -51
64 -45 105 -51 137 -17 49 53 4 125 -115 184 -63 31 -85 37 -157 40 -49 2
-104 -2 -133 -9z"/>
<path d="M2315 3125 c-201 -44 -357 -196 -410 -400 -22 -86 -22 -1501 0 -1585
51 -191 204 -346 390 -395 50 -13 147 -15 602 -15 l542 0 78 25 c165 52 289
174 349 342 l24 68 0 767 c0 757 0 769 -21 830 -65 190 -233 337 -419 367
-100 16 -1059 13 -1135 -4z m1208 -142 c126 -60 220 -176 247 -306 7 -37 10
-279 8 -773 l-3 -719 -24 -60 c-34 -86 -93 -160 -164 -206 -116 -75 -107 -74
-697 -74 -575 0 -569 -1 -678 62 -61 36 -148 136 -174 202 l-23 56 0 771 0
770 38 76 c26 53 54 91 90 124 50 45 145 97 197 107 14 2 270 4 570 3 l545 -1
68 -32z"/>
<path d="M2370 2921 c-102 -21 -194 -94 -238 -189 l-27 -57 0 -740 0 -740 28
-60 c40 -86 111 -150 196 -175 64 -20 89 -21 586 -18 l520 3 55 26 c70 33 126
89 159 159 l26 55 3 737 c2 724 2 737 -18 792 -29 77 -95 146 -172 182 l-63
29 -510 2 c-280 0 -526 -2 -545 -6z m310 -361 l0 -70 -75 0 -75 0 0 70 0 70
75 0 75 0 0 -70z m288 3 l-3 -68 -72 -3 -73 -3 0 71 0 70 75 0 76 0 -3 -67z
m282 -3 l0 -70 -70 0 -70 0 0 70 0 70 70 0 70 0 0 -70z m-584 -818 c10 -12 13
-61 14 -176 0 -150 -1 -161 -22 -183 -27 -29 -80 -31 -108 -3 -18 18 -20 33
-20 183 0 175 7 202 53 209 29 5 67 -9 83 -30z m574 0 c18 -22 20 -40 20 -177
0 -139 -2 -155 -21 -179 -28 -35 -80 -36 -114 -1 -24 23 -25 28 -25 178 0 140
2 157 20 180 33 42 87 42 120 -1z"/>
</g>
</svg>
