<?xml version="1.0" standalone="no"?>
<!DOCTYPE svg PUBLIC "-//W3C//DTD SVG 20010904//EN"
 "http://www.w3.org/TR/2001/REC-SVG-20010904/DTD/svg10.dtd">
<svg version="1.0" xmlns="http://www.w3.org/2000/svg"
 width="200.000000pt" height="200.000000pt" viewBox="0 0 200.000000 200.000000"
 preserveAspectRatio="xMidYMid meet">

<g transform="translate(0.000000,200.000000) scale(0.100000,-0.100000)"
fill="#000000" stroke="none">
<path d="M848 1790 c-209 -38 -237 -119 -58 -167 98 -27 351 -24 438 5 137 45
137 100 0 144 -71 23 -297 34 -380 18z"/>
<path d="M670 1383 l0 -140 83 -19 c116 -27 378 -27 495 0 l82 19 0 140 c0
128 -1 139 -17 132 -83 -32 -146 -40 -313 -40 -167 0 -230 8 -312 40 -17 7
-18 -4 -18 -132z"/>
<path d="M322 1349 c-163 -219 -163 -479 0 -698 l40 -53 35 34 35 35 -45 66
c-64 93 -82 152 -82 267 0 115 18 174 82 267 l45 66 -35 35 -35 34 -40 -53z"/>
<path d="M1602 1367 l-34 -35 45 -65 c64 -93 82 -152 82 -267 0 -115 -18 -174
-82 -267 l-45 -66 35 -35 35 -34 40 53 c135 179 158 402 62 594 -22 44 -54 97
-72 118 l-33 38 -33 -34z"/>
<path d="M467 1208 c-88 -130 -88 -286 0 -416 l36 -53 36 35 c31 31 34 39 23
54 -75 103 -75 241 0 344 11 15 8 23 -23 54 l-36 35 -36 -53z"/>
<path d="M1460 1225 c-29 -30 -33 -38 -22 -53 75 -104 75 -240 0 -344 -11 -15
-8 -23 23 -54 l36 -35 36 53 c88 130 88 286 0 416 -19 28 -36 52 -37 52 -1 0
-17 -16 -36 -35z"/>
<path d="M672 692 l3 -415 25 -18 c49 -36 145 -53 300 -53 155 0 251 17 300
53 l25 18 3 415 2 415 -62 -16 c-48 -12 -113 -16 -268 -16 -155 0 -220 4 -268
16 l-62 16 2 -415z m218 219 c16 -31 12 -49 -15 -67 -23 -15 -27 -15 -50 0
-27 18 -33 54 -13 74 19 19 66 15 78 -7z m300 0 c16 -31 12 -49 -15 -67 -23
-15 -27 -15 -50 0 -27 18 -33 54 -13 74 19 19 66 15 78 -7z m-156 -77 c9 -8
16 -24 16 -34 0 -10 -7 -26 -16 -34 -8 -9 -24 -16 -34 -16 -10 0 -26 7 -34 16
-9 8 -16 24 -16 34 0 10 7 26 16 34 8 9 24 16 34 16 10 0 26 -7 34 -16z m-153
-83 c20 -16 22 -23 14 -47 -9 -24 -16 -29 -45 -29 -29 0 -36 5 -45 29 -8 24
-6 31 14 47 13 10 27 19 31 19 4 0 18 -9 31 -19z m300 0 c20 -16 22 -23 14
-47 -9 -24 -16 -29 -45 -29 -29 0 -36 5 -45 29 -8 24 -6 31 14 47 13 10 27 19
31 19 4 0 18 -9 31 -19z m-141 -90 c16 -31 12 -49 -15 -67 -23 -15 -27 -15
-50 0 -27 18 -33 54 -13 74 19 19 66 15 78 -7z m-156 -77 c31 -30 9 -84 -34
-84 -24 0 -50 26 -50 50 0 43 54 65 84 34z m300 0 c31 -30 9 -84 -34 -84 -24
0 -50 26 -50 50 0 43 54 65 84 34z m-153 -83 c20 -16 22 -23 14 -47 -9 -24
-16 -29 -45 -29 -29 0 -36 5 -45 29 -8 24 -6 31 14 47 13 10 27 19 31 19 4 0
18 -9 31 -19z m-141 -90 c16 -31 12 -49 -15 -67 -23 -15 -27 -15 -50 0 -27 18
-33 54 -13 74 19 19 66 15 78 -7z m300 0 c16 -31 12 -49 -15 -67 -23 -15 -27
-15 -50 0 -27 18 -33 54 -13 74 19 19 66 15 78 -7z"/>
</g>
</svg>
