<?xml version="1.0" ?>
<!-- Uploaded to: SVG Repo, www.svgrepo.com, Generator: SVG Repo Mixer Tools -->
<svg fill="#000000" width="800px" height="800px" viewBox="0 0 24 24" id="Layer_2" version="1.1" xml:space="preserve" xmlns="http://www.w3.org/2000/svg" xmlns:xlink="http://www.w3.org/1999/xlink">
<g>
<path d="M18.5,10.75V6.003c0-0.967-0.699-1.753-1.56-1.753S15.38,5.036,15.38,6.003v4.747H8.62V6.003   c0-0.967-0.7-1.753-1.561-1.753S5.5,5.036,5.5,6.003v4.747c-1.379,0-2.5,1.122-2.5,2.5v2c0,1.378,1.121,2.5,2.5,2.5h0.45v0.89   c0,0.612,0.498,1.11,1.109,1.11c0.612,0,1.11-0.498,1.11-1.11v-0.89h7.66v0.89c0,0.612,0.498,1.11,1.11,1.11   c0.611,0,1.109-0.498,1.109-1.11v-0.89h0.45c1.379,0,2.5-1.122,2.5-2.5v-2C21,11.872,19.879,10.75,18.5,10.75z M16.38,6.003   c0-0.408,0.257-0.753,0.561-0.753c0.298,0,0.56,0.352,0.56,0.753v4.747h-1.12V6.003z M6.5,6.003c0-0.401,0.262-0.753,0.56-0.753   c0.304,0,0.561,0.345,0.561,0.753v4.747H6.5V6.003z M7.17,18.64c0,0.115-0.22,0.145-0.22,0v-0.89h0.22V18.64z M17.05,18.64   c-0.001,0.144-0.221,0.115-0.22,0v-0.89h0.22V18.64z M20,15.25c0,0.827-0.673,1.5-1.5,1.5h-0.95h-1.22H7.67H6.45H5.5   c-0.827,0-1.5-0.673-1.5-1.5v-2c0-0.827,0.673-1.5,1.5-1.5h0.51H8.11h7.779h2.101h0.51c0.827,0,1.5,0.673,1.5,1.5V15.25z"/>
<path d="M10,12.708H6c-0.276,0-0.5,0.224-0.5,0.5s0.224,0.5,0.5,0.5h4c0.276,0,0.5-0.224,0.5-0.5S10.276,12.708,10,12.708z"/>
<path d="M9.083,14.792H6c-0.276,0-0.5,0.224-0.5,0.5s0.224,0.5,0.5,0.5h3.083c0.276,0,0.5-0.224,0.5-0.5S9.359,14.792,9.083,14.792   z"/>
<path d="M13.514,8.56c0.195-0.195,0.195-0.512,0-0.707c-0.796-0.796-2.092-0.795-2.888,0c-0.195,0.195-0.195,0.512,0,0.707   c0.098,0.098,0.226,0.146,0.354,0.146s0.256-0.049,0.354-0.146c0.406-0.406,1.067-0.407,1.474,0   C13.002,8.755,13.318,8.755,13.514,8.56z"/>
<path d="M9.963,7.473c0.128,0,0.256-0.049,0.354-0.146c0.954-0.953,2.506-0.953,3.46,0c0.195,0.195,0.512,0.195,0.707,0   s0.195-0.512,0-0.707c-1.344-1.344-3.53-1.344-4.874,0c-0.195,0.195-0.195,0.512,0,0.707C9.707,7.424,9.835,7.473,9.963,7.473z"/>
<circle cx="12.07" cy="9.389" r="0.5"/>
</g>
</svg>